<svg width="30" height="27" viewBox="0 0 30 27" fill="none" xmlns="http://www.w3.org/2000/svg">
<path d="M9.13955 12.6663H2.10105C2.2211 5.65786 3.60179 4.50228 7.90893 1.95101C8.40418 1.65087 8.56926 1.02055 8.26911 0.510299C7.98397 0.0150522 7.33865 -0.15003 6.8434 0.150119C1.77088 3.15161 0 4.98252 0 13.7019V21.7909C0 24.3572 2.08604 26.4282 4.63731 26.4282H9.13955C11.7809 26.4282 13.7769 24.4322 13.7769 21.7909V17.2886C13.7769 14.6623 11.7809 12.6663 9.13955 12.6663Z" fill="#344054"/>
<path d="M25.3776 12.6663H18.3391C18.4592 5.65786 19.8399 4.50228 24.147 1.95101C24.6423 1.65087 24.8073 1.02055 24.5072 0.510299C24.207 0.0150522 23.5767 -0.15003 23.0665 0.150119C17.9939 3.15161 16.2231 4.98252 16.2231 13.7169V21.8059C16.2231 24.3722 18.3091 26.4432 20.8604 26.4432H25.3626C28.0039 26.4432 29.9999 24.4472 29.9999 21.8059V17.3037C30.0149 14.6623 28.0189 12.6663 25.3776 12.6663Z" fill="#344054"/>
</svg>
